<?xml version="1.0" encoding="UTF-8" standalone="no"?>
<!-- Created with Inkscape (http://www.inkscape.org/) -->

<svg
   width="328.08334mm"
   height="328.08334mm"
   viewBox="0 0 328.08334 328.08334"
   version="1.1"
   id="svg5"
   inkscape:version="1.2 (1:1.2.1+202207142221+cd75a1ee6d)"
   sodipodi:docname="app_icon.svg"
   xml:space="preserve"
   inkscape:export-filename="app_icon.png"
   inkscape:export-xdpi="96"
   inkscape:export-ydpi="96"
   xmlns:inkscape="http://www.inkscape.org/namespaces/inkscape"
   xmlns:sodipodi="http://sodipodi.sourceforge.net/DTD/sodipodi-0.dtd"
   xmlns="http://www.w3.org/2000/svg"
   xmlns:svg="http://www.w3.org/2000/svg"><sodipodi:namedview
     id="namedview7"
     pagecolor="#ffffff"
     bordercolor="#000000"
     borderopacity="0.25"
     inkscape:showpageshadow="2"
     inkscape:pageopacity="0"
     inkscape:pagecheckerboard="0"
     inkscape:deskcolor="#d1d1d1"
     inkscape:document-units="mm"
     showgrid="false"
     inkscape:zoom="0.5946522"
     inkscape:cx="235.43174"
     inkscape:cy="644.07396"
     inkscape:window-width="1920"
     inkscape:window-height="1131"
     inkscape:window-x="0"
     inkscape:window-y="32"
     inkscape:window-maximized="1"
     inkscape:current-layer="layer1" /><defs
     id="defs2" /><g
     inkscape:label="Background"
     inkscape:groupmode="layer"
     id="layer1"
     transform="translate(-37.698399,-43.229435)"
     style="display:inline"><rect
       style="display:none;fill:none;stroke-width:0.264583"
       id="rect111"
       width="328.08334"
       height="328.08334"
       x="37.698399"
       y="43.229435" /></g><g
     inkscape:groupmode="layer"
     id="layer3"
     inkscape:label="Middle"><rect
       style="display:none;fill:#b3b3b3;stroke-width:0.264583"
       id="rect111-2"
       width="328.08334"
       height="328.08334"
       x="0.13555014"
       y="0.6014213" /><path
       style="fill:#e6e6e6;stroke-width:0.264583"
       d="M 170.02811,77.724147 142.16408,78.881858 114.101,96.690443 95.910198,128.00751 c 0,0 -3.229168,29.3359 -1.591255,31.22919 1.637911,1.8933 17.245687,33.08718 17.245687,33.08718 l 26.07716,34.6395 2.88362,32.84774 2.16935,18.31089 17.10623,10.24085 21.74355,-4.66254 6.7535,-37.92612 2.21915,-20.17317 20.32441,-27.57255 19.94416,-40.72361 -6.14538,-36.57686 -21.941,-29.718292 -22.97041,-11.782182 z"
       id="path455" /></g><g
     inkscape:groupmode="layer"
     id="layer2"
     inkscape:label="Icon"><path
       class="st0"
       d="m 229.0563,158.75285 6.21658,6.21656 c 1.63023,1.63022 1.63023,4.32551 0,5.95573 l -5.02101,5.02106 c 1.39109,2.58662 2.43443,5.36885 3.10825,8.2815 h 6.49909 c 2.32583,0 4.2169,1.89105 4.2169,4.21683 v 8.80317 c 0,2.32577 -1.89107,4.21683 -4.2169,4.21683 h -7.08599 c -0.86942,2.86918 -2.10837,5.56446 -3.67338,8.06413 l 4.58634,4.58634 c 1.63015,1.63022 1.63015,4.32551 0,5.95573 l -6.21657,6.21655 c -1.63024,1.63022 -4.3255,1.63022 -5.95574,0 l -4.99932,-4.99932 c -2.58665,1.39111 -5.36884,2.43445 -8.30325,3.10828 v 6.49912 c 0,2.32578 -1.89107,4.21683 -4.21681,4.21683 h -8.80315 c -2.32582,0 -4.21689,-1.89105 -4.21689,-4.21683 v -7.08601 c -2.86918,-0.86944 -5.56445,-2.1084 -8.06411,-3.67341 l -4.54287,4.5646 c -1.63024,1.63022 -4.3255,1.63022 -5.95574,0 l -6.21657,-6.21656 c -1.63016,-1.63021 -1.63016,-4.32551 0,-5.95572 l 4.9994,-4.99933 c -1.39118,-2.58661 -2.43451,-5.36884 -3.10833,-8.2815 h -6.4991 c -2.30403,0 -4.21679,-1.89105 -4.21679,-4.21683 v -8.80316 c 0,-2.32579 1.89099,-4.21683 4.21679,-4.21683 h 7.086 c 0.86942,-2.86918 2.10845,-5.56447 3.67345,-8.06414 l -4.58641,-4.58634 c -1.63016,-1.63022 -1.63016,-4.32551 0,-5.95572 l 6.21657,-6.21657 c 1.63023,-1.63021 4.3255,-1.63021 5.95574,0 l 5.02108,5.02107 c 2.58658,-1.39112 5.36884,-2.43445 8.28148,-3.10827 v -6.49913 c 0,-2.32579 1.89107,-4.21683 4.21681,-4.21683 h 8.80324 c 2.32574,0 4.21681,1.89104 4.21681,4.21683 v 7.086 c 2.86918,0.86944 5.56444,2.10841 8.0641,3.67342 l 4.58634,-4.58634 c 1.63023,-1.67369 4.30381,-1.67369 5.93396,-0.0214 z m -56.49242,132.83004 c -2.47789,0.0649 -4.65149,-1.76064 -4.99932,-4.2603 -0.36969,-2.60835 1.39117,-5.02107 3.95598,-5.521 -2.82564,-16.01959 -10.54207,-24.8445 -18.69308,-34.16934 -6.34703,-7.25989 -12.93304,-14.80236 -18.12805,-25.90957 -5.108,-10.93332 -7.91195,-22.23615 -7.82504,-33.97371 0.10845,-11.73756 3.08656,-23.82289 9.56397,-36.32123 0.0411,-0.0869 0.0871,-0.15214 0.13062,-0.23906 v 0 c 8.49886,-14.38937 20.38856,-23.99679 33.62588,-29.38736 11.1072,-4.54288 23.17082,-6.08615 34.9953,-4.99934 11.7811,1.08682 23.32297,4.78197 33.4086,10.7377 12.82436,7.58593 23.36643,18.8453 29.17002,33.06078 3.13002,7.69462 5.26016,16.28043 5.52099,25.69221 0.26125,9.36831 -1.34763,19.47566 -5.67313,30.16988 -5.78182,14.32417 -13.43303,23.21428 -20.58425,31.53925 -6.58601,7.67289 -12.71567,14.80236 -16.12821,25.73569 1.93445,0.45644 3.456,2.0432 3.76029,4.12988 0.36969,2.69529 -1.52146,5.19495 -4.21681,5.56447 l -1.65192,0.23914 c -0.30397,2.36924 -0.49949,4.91239 -0.58657,7.62941 l 0.54302,-0.0869 c 2.69527,-0.36952 5.19493,1.52154 5.56445,4.21683 0.36969,2.69529 -1.52155,5.19496 -4.21681,5.56447 l -1.69539,0.23907 c 0.0247,0.32606 0.0411,0.65204 0.0657,0.97812 v 0 c 0.15199,1.9128 0.17417,3.76037 0.0657,5.52101 l 0.2826,-0.0435 c 2.71695,-0.32606 5.17315,1.60849 5.52099,4.30378 0.32614,2.71703 -1.60847,5.17322 -4.30381,5.521 l -3.65169,0.45644 c -2.60835,6.75997 -7.25991,11.91145 -12.75913,15.08494 -3.78214,2.19536 -7.97718,3.45605 -12.19399,3.71689 -4.28205,0.26083 -8.60755,-0.54344 -12.56361,-2.45619 -4.5211,-2.2171 -8.564,-5.89052 -11.49841,-11.17242 -1.41286,-0.71727 -2.4562,-2.10841 -2.67358,-3.80384 -0.0871,-0.67381 -0.0246,-1.32591 0.15199,-1.93452 -0.84774,-2.5214 -1.47809,-5.2819 -1.89107,-8.32497 l -0.15199,0.0214 c -2.69526,0.36952 -5.19492,-1.52154 -5.56444,-4.21683 -0.36969,-2.69529 1.52155,-5.19495 4.21681,-5.56447 l 1.1738,-0.17391 c 0.0657,-2.65183 0.0411,-5.17322 -0.0657,-7.56421 z m -91.18342,-93.9222 c -2.543117,0.0649 -4.651565,-1.91279 -4.738482,-4.45593 -0.08708,-2.54313 1.91276,-4.65155 4.455959,-4.7385 l 18.910473,-0.65205 c 2.54311,-0.0869 4.65156,1.9128 4.73848,4.45593 0.0871,2.54314 -1.91276,4.65156 -4.45588,4.7385 z M 317.24018,178.9458 c 2.52143,-0.26083 4.78194,1.58674 5.04278,4.10815 0.26042,2.5214 -1.5867,4.78196 -4.10813,5.0428 l -18.82355,1.97799 c -2.52143,0.26084 -4.78194,-1.58674 -5.04278,-4.10814 -0.26124,-2.5214 1.5867,-4.78197 4.10813,-5.04281 z m -34.27802,-77.09837 c 1.41286,-2.10841 4.26027,-2.673555 6.36871,-1.2607 2.10845,1.41286 2.67358,4.2603 1.26072,6.36871 l -10.5203,15.73703 c -1.41287,2.10841 -4.26036,2.67355 -6.36872,1.26069 -2.10845,-1.41285 -2.67358,-4.26029 -1.26072,-6.36871 z M 201.90781,74.198963 c 0.0657,-2.543141 2.1736,-4.542868 4.69503,-4.477663 2.54311,0.0649 4.54287,2.173619 4.47764,4.695023 l -0.47812,18.910511 c -0.0657,2.543141 -2.1736,4.542868 -4.69503,4.477664 -2.54311,-0.0649 -4.54287,-2.173628 -4.47764,-4.695024 z m -95.09593,29.278687 c -1.8693,-1.7389 -1.9563,-4.651551 -0.23907,-6.499131 1.73885,-1.869318 4.65157,-1.95626 6.4991,-0.239065 l 13.846,12.911316 c 1.86931,1.7389 1.95622,4.65155 0.23907,6.49913 -1.73893,1.86931 -4.65157,1.95626 -6.49918,0.23906 z m 73.9031,176.99803 40.1903,-5.71662 c 3.456,-14.56327 10.97675,-23.32297 19.12785,-32.77822 6.69478,-7.78157 13.82423,-16.08481 19.04093,-28.99612 3.8256,-9.45526 5.23846,-18.32363 5.02108,-26.49645 -0.2177,-8.15109 -2.08667,-15.67181 -4.86894,-22.47525 -4.99931,-12.23749 -14.1503,-21.97532 -25.32264,-28.58313 -8.93361,-5.2819 -19.12793,-8.56407 -29.53955,-9.49873 -10.36815,-0.95639 -20.95377,0.41298 -30.71325,4.39072 -11.43327,4.67328 -21.71449,12.97652 -29.10486,25.47485 -5.73836,11.12894 -8.39017,21.77969 -8.47708,32.01744 -0.0871,10.30298 2.41274,20.2799 6.95561,29.99599 4.6298,9.91171 10.80291,16.95425 16.71509,23.73595 9.21621,10.5638 17.93236,20.54073 20.97546,38.92957 z m 38.56007,4.49939 -37.53842,5.32538 c 0.10844,2.39098 0.15198,4.89065 0.10844,7.54247 l 37.06021,-5.26017 c 0.0411,-2.67355 0.15198,-5.21669 0.36968,-7.60768 z m -37.23413,22.82304 c 0.26043,1.99973 0.6523,3.82557 1.15203,5.521 l 35.97341,-4.43419 c 0.23906,-1.86932 0.2826,-3.84731 0.10844,-5.95572 v 0 -0.0435 l -0.0247,-0.36953 z m 6.26003,14.86757 c 1.39109,1.45633 2.93433,2.58662 4.56457,3.36912 2.49966,1.21722 5.26015,1.71715 7.97718,1.56501 2.80404,-0.17392 5.58622,-1.0216 8.12934,-2.49967 2.39105,-1.39112 4.54287,-3.32565 6.26003,-5.7601 z m 12.43307,-148.24101 c 9.54219,0 17.30208,7.73809 17.30208,17.30202 0,9.56394 -7.73812,17.30204 -17.30208,17.30204 -9.56388,0 -17.30201,-7.7381 -17.30201,-17.30204 0,-9.56393 7.75981,-17.30202 17.30201,-17.30202 z"
       id="path296"
       style="stroke-width:2.17362"
       transform="translate(-37.6984,-43.229435)" /></g><style
     type="text/css"
     id="style294"><![CDATA[
	.st0{fill-rule:evenodd;clip-rule:evenodd;}
]]></style></svg>
