<svg xmlns="http://www.w3.org/2000/svg" width="256" height="256"><path fill-opacity=".016" d="M0 128.004v128.004l128.25-.254 128.25-.254.254-127.75L257.008 0H0v128.004m.485.496c0 70.4.119 99.053.265 63.672.146-35.38.146-92.98 0-128C.604 29.153.485 58.1.485 128.5" fill="#027be3" fill-rule="evenodd"/><path fill-opacity=".095" d="M129.162 21.305c-.595.717-1.384 4.913-1.751 9.324-.728 8.727.303 12.371 3.502 12.371 3.217 0 4.437-2.845 4.886-11.386.356-6.788.135-8.537-1.255-9.927-2.021-2.021-3.91-2.156-5.382-.382M53.655 41.829C52.745 42.835 52 44.086 52 44.61c0 .911 9.663 10.634 13.186 13.268 2.359 1.764 5.814-.204 5.814-3.31 0-1.663-2.038-4.169-6.884-8.465C60.33 42.746 56.8 40 56.271 40c-.528 0-1.706.823-2.616 1.829m133.352 9.661c-5.222 7.738-5.775 9.997-2.893 11.812 2.621 1.65 4.542.192 9.43-7.159 5.278-7.938 5.653-11.447 1.277-11.953-2.344-.27-3.322.643-7.814 7.3m-76.883 7.037c-14.218 3.958-28.787 15.726-34.551 27.91-11.579 24.476-7.44 48.261 12.454 71.563 9.062 10.614 12.035 15.231 14.415 22.384 1.462 4.392 1.471 5.055.092 6.579-2.105 2.325-1.922 4.778.466 6.269 1.1.687 2 2.25 2 3.473 0 1.224-.9 2.706-2 3.295-2.748 1.471-2.51 5.196.5 7.813 1.578 1.372 2.5 3.229 2.5 5.037 0 3.781 6.032 11.62 10.8 14.033 5.953 3.013 9.652 3.418 15.557 1.702 5.378-1.564 12.846-7.601 14.112-11.409.307-.922 2.014-2.351 3.794-3.176 3.824-1.772 4.49-5.796 1.237-7.47-2.646-1.363-2.53-3.601.304-5.895 2.829-2.29 2.56-5.756-.554-7.122-1.268-.556-2.25-1.871-2.25-3.013s.982-2.457 2.25-3.013c2.684-1.178 3.563-5.419 1.444-6.969-1.304-.953-1.191-1.735.886-6.105 1.31-2.756 5.364-8.589 9.01-12.962 16.159-19.385 21.41-31.339 21.41-48.74 0-24.139-14.978-44.419-39-52.804-8.388-2.928-26.71-3.653-34.876-1.38m11.626 7.196c1.787.222 4.713.222 6.5 0 1.787-.221.325-.403-3.25-.403s-5.037.182-3.25.403M161.5 80c2.148 2.2 4.131 4 4.406 4 .275 0-1.258-1.8-3.406-4s-4.131-4-4.406-4c-.275 0 1.258 1.8 3.406 4m-70.628-1.25c-1.243 1.586-1.208 1.621.378.378C92.916 77.821 93.445 77 92.622 77c-.207 0-.995.787-1.75 1.75M120.158 86c0 1.375.227 1.938.504 1.25.278-.687.278-1.812 0-2.5-.277-.687-.504-.125-.504 1.25m-17.234 4.75L100.5 93.5l2.75-2.424c2.57-2.266 3.209-3.076 2.424-3.076-.179 0-1.416 1.237-2.75 2.75M101 99.378c0 .207.787.995 1.75 1.75 1.586 1.243 1.621 1.208.378-.378-1.307-1.666-2.128-2.195-2.128-1.372m51.405 2.872-1.905 2.25 2.25-1.905c2.114-1.79 2.705-2.595 1.905-2.595-.19 0-1.202 1.013-2.25 2.25m-27.155 1.439c.963.252 2.537.252 3.5 0 .963-.251.175-.457-1.75-.457s-2.713.206-1.75.457M135.5 107c.995 1.1 2.035 2 2.31 2 .275 0-.315-.9-1.31-2-.995-1.1-2.035-2-2.31-2-.275 0 .315.9 1.31 2m74.619-.894C202.313 107.022 200 108.141 200 111c0 3.44 2.416 4.188 11.083 3.432 6.102-.532 8.694-1.209 10.132-2.647 1.729-1.729 1.78-2.16.489-4.108-1.733-2.614-2.182-2.675-11.585-1.571M175.32 113c0 3.575.182 5.037.403 3.25.222-1.787.222-4.713 0-6.5-.221-1.787-.403-.325-.403 3.25m-83.02 2c0 3.025.187 4.263.416 2.75.229-1.513.229-3.987 0-5.5s-.416-.275-.416 2.75m-55.198-2.087c-6.052.658-8.413 2.781-6.491 5.837 1.559 2.48 16.512 3.055 20 .769 2.772-1.816 3.035-3.73.818-5.948-1.615-1.614-4.37-1.741-14.327-.658M139.232 116c0 1.925.206 2.713.457 1.75.252-.963.252-2.537 0-3.5-.251-.963-.457-.175-.457 1.75m-61.153 5.583c.048 1.165.285 1.402.604.605.289-.722.253-1.585-.079-1.917-.332-.332-.568.258-.525 1.312m57.793 3.167c-1.243 1.586-1.208 1.621.378.378.963-.755 1.75-1.543 1.75-1.75 0-.823-.821-.294-2.128 1.372m16.757.041c-.269.435 1.055.611 2.941.391 1.887-.221 3.43-.577 3.43-.791 0-.753-5.887-.383-6.371.4m-51.757 4.959c-1.243 1.586-1.208 1.621.378.378.963-.755 1.75-1.543 1.75-1.75 0-.823-.821-.294-2.128 1.372m25.941-1.067c.721.289 1.584.253 1.916-.079.332-.332-.258-.568-1.312-.525-1.165.048-1.402.285-.604.604m23.187.695c0 .207.787.995 1.75 1.75 1.586 1.243 1.621 1.208.378-.378-1.307-1.666-2.128-2.195-2.128-1.372m.924 11.372-2.424 2.75 2.75-2.424c2.57-2.266 3.209-3.076 2.424-3.076-.179 0-1.416 1.238-2.75 2.75m-44.111 2.933c.721.289 1.584.253 1.916-.079.332-.332-.258-.568-1.312-.525-1.165.048-1.402.285-.604.604M118.158 145c0 1.375.227 1.938.504 1.25.278-.687.278-1.812 0-2.5-.277-.687-.504-.125-.504 1.25M93.5 152c.995 1.1 2.035 2 2.31 2 .275 0-.315-.9-1.31-2-.995-1.1-2.035-2-2.31-2-.275 0 .315.9 1.31 2m61.372 4.75c-1.243 1.586-1.208 1.621.378.378 1.666-1.307 2.195-2.128 1.372-2.128-.207 0-.995.787-1.75 1.75m-19.122 23.912c.688.278 1.813.278 2.5 0 .688-.277.125-.504-1.25-.504s-1.937.227-1.25.504m-6.937 1.021c.721.289 1.584.253 1.916-.079.332-.332-.258-.568-1.312-.525-1.165.048-1.402.285-.604.604m-7 1c.721.289 1.584.253 1.916-.079.332-.332-.258-.568-1.312-.525-1.165.048-1.402.285-.604.604m-7 1c.721.289 1.584.253 1.916-.079.332-.332-.258-.568-1.312-.525-1.165.048-1.402.285-.604.604m25.266 6.9c.048 1.165.285 1.402.604.605.289-.722.253-1.585-.079-1.917-.332-.332-.568.258-.525 1.312m-12.266 1.1c.721.289 1.584.253 1.916-.079.332-.332-.258-.568-1.312-.525-1.165.048-1.402.285-.604.604m-7 1c.721.289 1.584.253 1.916-.079.332-.332-.258-.568-1.312-.525-1.165.048-1.402.285-.604.604m-7 1c.721.289 1.584.253 1.916-.079.332-.332-.258-.568-1.312-.525-1.165.048-1.402.285-.604.604m20 1c.721.289 1.584.253 1.916-.079.332-.332-.258-.568-1.312-.525-1.165.048-1.402.285-.604.604m-7 1c.721.289 1.584.253 1.916-.079.332-.332-.258-.568-1.312-.525-1.165.048-1.402.285-.604.604m-7 1c.721.289 1.584.253 1.916-.079.332-.332-.258-.568-1.312-.525-1.165.048-1.402.285-.604.604m13 8c.721.289 1.584.253 1.916-.079.332-.332-.258-.568-1.312-.525-1.165.048-1.402.285-.604.604m-14 2c.721.289 1.584.253 1.916-.079.332-.332-.258-.568-1.312-.525-1.165.048-1.402.285-.604.604m12 1c.721.289 1.584.253 1.916-.079.332-.332-.258-.568-1.312-.525-1.165.048-1.402.285-.604.604m-8 1c.721.289 1.584.253 1.916-.079.332-.332-.258-.568-1.312-.525-1.165.048-1.402.285-.604.604m12.059 9.067c-1.243 1.586-1.208 1.621.378.378 1.666-1.307 2.195-2.128 1.372-2.128-.207 0-.995.787-1.75 1.75m-5.059-.067c.721.289 1.584.253 1.916-.079.332-.332-.258-.568-1.312-.525-1.165.048-1.402.285-.604.604m-8 1c.721.289 1.584.253 1.916-.079.332-.332-.258-.568-1.312-.525-1.165.048-1.402.285-.604.604" fill="#027be3" fill-rule="evenodd"/><path fill-opacity=".639" d="M129.598 21.305c-2.417 1.767-1.938 19.455.568 21.031 1.207.759 2.103.686 3.25-.266 1.238-1.028 1.584-3.353 1.584-10.657 0-8.088-.25-9.476-1.862-10.339-1.3-.696-2.369-.626-3.54.231M53.667 41.667c-2.044 2.043-.24 5.355 5.841 10.727 6.579 5.812 8.883 6.527 10.87 3.371.916-1.455.047-2.791-5.363-8.25-5.956-6.009-9.408-7.788-11.348-5.848m138.108 3.701c-3.33 3.33-9.779 14.458-9.221 15.911.724 1.888 2.932 2.855 4.845 2.122C189.088 62.752 198 49.564 198 47.712c0-1.653-2.013-3.712-3.629-3.712-.675 0-1.844.616-2.596 1.368m-80.174 13.226c-35.169 8.51-52.327 48.168-35.401 81.826 3.196 6.355 5.451 9.494 15.142 21.08 9.293 11.11 14.429 22.785 11.202 25.463-2.146 1.782-1.928 4.78.456 6.269 2.331 1.456 2.807 6.768.607 6.768-1.435 0-2.607 2.07-2.607 4.603 0 .792 1.082 1.933 2.404 2.535 1.8.82 2.566 2.176 3.048 5.393.459 3.058 1.844 5.659 4.802 9.02 4.82 5.476 8.858 7.449 15.246 7.449 8.051 0 14.297-3.673 19.132-11.25 1.427-2.236 3.181-3.75 4.345-3.75 4.09 0 4.866-6.28.931-7.529-2.299-.73-2.683-5.471-.443-5.471.805 0 1.991-.984 2.634-2.186 1.012-1.889.813-2.493-1.464-4.452-3.105-2.67-3.436-5.973-.686-6.846 2.782-.883 3.585-4.269 1.547-6.521-1.59-1.757-1.51-2.187 1.439-7.678 1.718-3.199 6.373-9.721 10.344-14.493 8.942-10.745 13.098-17.537 16.512-26.989 2.253-6.238 2.652-8.98 2.668-18.335.03-16.93-4.268-27.532-15.85-39.1-14.383-14.365-36.347-20.563-56.008-15.806m-1.839 8.348C98.353 70.589 87.096 80.279 82.394 90.5c-9.732 21.156-5.986 41.781 11.258 61.991 9.972 11.688 14.246 18.363 16.494 25.762 1.618 5.328 2.427 6.711 3.712 6.345.903-.257 7.657-1.267 15.009-2.243 12.636-1.677 13.423-1.913 14.391-4.315 3.493-8.66 6.688-13.752 14.768-23.54 13.438-16.278 17.939-26.712 17.962-41.645.035-22.157-14.552-40.599-36.668-46.36-7.946-2.07-22.368-1.852-29.558.447m12.449 16.308c-.569.688-1.186 2.565-1.373 4.173-.483 4.179-5.047 5.668-8.224 2.684-3.218-3.023-5.964-2.611-9.51 1.428-3.721 4.238-3.755 4.596-.763 8.075 2.156 2.506 2.229 2.945.927 5.556-1.115 2.234-2.097 2.834-4.641 2.834-4.37 0-5.627 1.563-5.627 7 0 5.392 1.259 7 5.481 7 2.548 0 3.29.554 4.29 3.205 1.1 2.913.983 3.442-1.28 5.805-1.37 1.43-2.491 3.046-2.491 3.592 0 1.301 7.282 8.398 8.618 8.398.568 0 2.043-1.075 3.277-2.389 2.104-2.239 2.427-2.297 5.175-.926 2.065 1.03 2.93 2.197 2.93 3.954 0 4.702 1.683 6.361 6.453 6.361 6.398 0 7.547-.701 7.547-4.604 0-2.877.492-3.598 3.25-4.763 3.019-1.276 3.432-1.205 5.805.997 3.403 3.157 4.949 2.993 8.749-.928 3.761-3.88 3.939-5.283 1.058-8.348-1.907-2.031-2.001-2.603-.878-5.315 1.038-2.505 1.83-3.039 4.515-3.039 4.462 0 5.667-1.855 5.306-8.169l-.305-5.331-3.651-.304c-2.977-.249-3.88-.856-4.888-3.29-1.096-2.646-.993-3.243.901-5.26 2.986-3.178 2.672-5.736-1.16-9.45-3.88-3.761-5.283-3.939-8.348-1.058-2.031 1.907-2.603 2.001-5.315.878-2.361-.978-3.039-1.883-3.039-4.056 0-5.226-.798-5.96-6.485-5.96-2.998 0-5.716.539-6.304 1.25m-2.596 21.838c-10.99 8.645-4.506 25.174 9.266 23.622 3.592-.405 5.242-1.268 7.835-4.097 2.769-3.022 3.278-4.331 3.249-8.348-.042-5.635-1.531-8.681-5.532-11.319-4.049-2.669-11.333-2.599-14.818.142m86.987 1.797c-5.554.697-7.843 2.946-5.968 5.865.918 1.429 2.293 1.691 7.495 1.428 3.504-.177 7.946-.646 9.871-1.041 3.049-.626 3.5-1.1 3.5-3.678 0-2.869-.152-2.962-5-3.074-2.75-.063-7.204.162-9.898.5M31.2 114.2c-1.63 1.63-1.508 3.35.372 5.229 1.292 1.292 3.114 1.462 10.25.953 9.42-.672 11.957-2.058 10.104-5.52-.862-1.61-2.249-1.862-10.261-1.862-5.873 0-9.704.439-10.465 1.2m97.3 76.389c-16.109 2.439-15.5 2.244-15.5 4.956 0 2.945.113 2.949 16 .621 11.314-1.659 11.505-1.73 11.816-4.426.367-3.175.794-3.135-12.316-1.151m-3.986 14.284c-8.885 1.316-11.051 1.962-11.324 3.377-.405 2.103 1.943 2.232 13.488.738 13.439-1.74 14.069-1.913 14.618-4.013.635-2.426-1.016-2.436-16.782-.102m.661 12.364c-6.312.836-7.073 1.142-5.5 2.217 4.597 3.143 12.309 2.432 15.83-1.46 1.757-1.941 1.74-1.99-.6-1.86-1.323.074-5.701.57-9.73 1.103" fill="#027be3" fill-rule="evenodd"/><path fill-opacity=".976" d="M129.122 22.353c-.791.953-1.103 4.477-.912 10.298.288 8.8.305 8.851 3.005 9.162 3.437.396 3.983-1.483 3.582-12.316-.269-7.234-.496-8.025-2.385-8.295-1.148-.164-2.628.354-3.29 1.151M54.2 42.2c-2.063 2.063-1.387 3.303 5.292 9.716 6.937 6.663 9.786 7.478 10.312 2.953.247-2.12-.885-3.673-6-8.236-6.62-5.906-7.654-6.383-9.604-4.433m138.624 2.879c-2.465 1.379-10.027 13.627-9.644 15.619.224 1.16 1.233 1.802 2.834 1.802 1.959 0 3.502-1.493 7.282-7.049 4.664-6.855 5.263-9.639 2.316-10.77-.678-.26-1.933-.081-2.788.398M116.23 58.12c-26.796 3.952-46.156 27.168-46.215 55.42-.031 14.777 6.221 29.49 18.893 44.46 11.485 13.567 17.837 26.307 14.499 29.077-2.029 1.684-1.729 4.68.593 5.923 2.802 1.5 2.489 5.035-.668 7.553-2.992 2.385-2.685 5.281.653 6.153 1.498.392 2.132 1.693 2.621 5.38.531 4.006 1.482 5.736 5.394 9.816 3.309 3.452 6.062 5.307 9.082 6.12 8.833 2.379 18.894-1.711 23.486-9.549 1.479-2.523 3.365-4.473 4.327-4.473 3.952 0 5.757-5.755 2.105-6.71-2.695-.705-2.695-5.375 0-7.058 2.861-1.786 2.545-5.074-.602-6.271-1.778-.676-2.411-1.485-2-2.557.331-.862.602-2.153.602-2.869 0-.716.9-1.537 2-1.825 2.246-.587 2.756-4.554.833-6.477-1.922-1.922 1.789-8.667 11.13-20.233 10.763-13.328 14.472-19.517 17.675-29.5 6.376-19.874 1.436-41.38-12.777-55.626-12.792-12.822-33.26-19.463-51.631-16.754m-2.73 7.218c-22.352 5.823-36.425 24.043-36.479 47.23-.036 15.725 4.08 25.401 17.899 42.071 9.201 11.101 14.388 19.94 15.614 26.611.499 2.72 1.192 3.75 2.522 3.75 2.089 0 29.194-3.917 29.546-4.269.127-.127 1.182-2.645 2.345-5.595 2.523-6.403 5.574-10.96 14.481-21.636 3.671-4.4 8.013-10.324 9.648-13.164 20.044-34.819-1.492-74.135-41.576-75.904-5.476-.241-10.958.113-14 .906m9.167 17.329c-.367.366-.667 2.16-.667 3.986 0 2.879-.488 3.524-3.673 4.855-3.555 1.485-3.758 1.453-6.305-.987-3.386-3.244-3.987-3.184-7.826.777-3.727 3.845-3.934 5.288-1.178 8.222 1.898 2.02 1.927 2.367.487 5.814-1.401 3.352-1.873 3.666-5.518 3.666H94v6c0 6.298.001 6.299 5.325 6.261 1.095-.008 2.468 1.335 3.432 3.355 1.536 3.221 1.511 3.47-.575 5.691-2.931 3.119-2.747 5.777.623 9.006 3.367 3.226 5.812 3.396 8.779.609 2.083-1.957 2.39-1.987 5.253-.506 2.446 1.264 3.102 2.308 3.352 5.328l.311 3.756h12l.306-3.672c.256-3.077.801-3.844 3.368-4.739 2.674-.932 3.438-.752 6.017 1.418 3.339 2.809 4.564 2.499 9.149-2.319 2.981-3.134 2.797-5.169-.732-8.098-1.332-1.106-1.317-1.632.131-4.668 1.424-2.987 2.102-3.422 5.339-3.422 4.158 0 4.922-1.068 4.922-6.882 0-4.525-1.427-6.118-5.481-6.118-2.548 0-3.29-.554-4.29-3.205-1.1-2.913-.983-3.442 1.28-5.805 1.37-1.43 2.491-3.046 2.491-3.592 0-.546-1.796-2.746-3.992-4.89l-3.992-3.898-2.898 2.777c-2.822 2.704-2.982 2.735-6.009 1.17-2.241-1.159-3.109-2.318-3.109-4.148 0-4.879-1.64-6.409-6.869-6.409-2.638 0-5.098.3-5.464.667M121 103.805c-12.555 6.893-7.775 25.528 6.548 25.528 10.134 0 16.716-11.467 11.496-20.029-3.991-6.545-11.803-8.926-18.044-5.499m88.093 3.258c-7.014.931-8.473 1.776-7.904 4.581.338 1.666 1.29 1.829 9.324 1.59 9.823-.293 12.924-1.72 10.869-5.003-1.294-2.066-3.757-2.301-12.289-1.168M34.5 113.878c-2.358.504-3 1.174-3 3.132 0 2.477.05 2.49 9.391 2.49 7.677 0 9.583-.304 10.442-1.666 1.966-3.116-.864-4.848-7.705-4.716-3.371.065-7.478.407-9.128.76m89 76.995-11 1.627-.32 3.345c-.306 3.188-.189 3.318 2.5 2.775 1.551-.313 7.933-1.261 14.183-2.106s11.763-1.783 12.25-2.084c.488-.301.887-1.646.887-2.989 0-2.176-.407-2.428-3.75-2.318-2.062.068-8.7.856-14.75 1.75m11.5 12.116c-2.475.414-8.437 1.308-13.25 1.986-8.233 1.159-8.75 1.374-8.75 3.637 0 2.683-.819 2.684 20-.012 8.216-1.063 8.511-1.192 8.816-3.85.344-2.986.405-2.97-6.816-1.761m-7.209 13.429c-4.79.641-8.963 1.421-9.274 1.732-1.206 1.206 2.77 3.171 7.266 3.589 3.771.351 5.404-.03 8.14-1.9 3.226-2.204 5.241-4.989 3.41-4.713-.458.069-4.752.65-9.542 1.292" fill="#027be3" fill-rule="evenodd"/></svg>