<?xml version="1.0" standalone="no"?>
<svg version="1.1" xmlns:xlink="http://www.w3.org/1999/xlink" xmlns="http://www.w3.org/2000/svg" viewBox="0 0 1000 1000" width="1000" height="1000"><rect x="0" y="0" width="1000" height="1000" fill="#693d5f"></rect><polygon points="120,120,180,120,120,180" fill="#fc3a51"></polygon><polygon points="180,120,240,120,180,180" fill="#f5b349"></polygon><polygon points="120,180,180,180,120,240" fill="#e8d5b9"></polygon><polygon points="180,180,240,180,180,240" fill="#e8d5b7"></polygon><polygon points="120,240,180,240,120,300" fill="#0e2430"></polygon><polygon points="240,120,300,120,240,180" fill="#e8d5b9"></polygon><polygon points="240,240,300,180,240,180" fill="#e8d5b7"></polygon><polygon points="180,240,240,240,180,300" fill="#0e2430"></polygon><polygon points="240,240,300,240,240,300" fill="#f5b349"></polygon><path d="
    M 300 500
    A 90 90 0 0 1 120 500
    L 210 500z" fill="#fc3a51"></path><path d="
    M 120 590
    A 90 90 0 0 1 210 680
    L 120 680z" fill="#f5b349"></path><path d="
    M 210 680
    A 90 90 0 0 1 300 590
    L 300 680z" fill="#e8d5b9"></path><polygon points="400,120,490,210,400,300,310,210" fill="#fc3a51"></polygon><circle cx="445" cy="165" r="29.999999999999996" fill="#f5b349"></circle><circle cx="355" cy="255" r="29.999999999999996" fill="#e8d5b9"></circle><polygon points="400,310,490,400,400,490,310,400" fill="#fc3a51"></polygon><circle cx="400" cy="400" r="45" fill="#f5b349"></circle><polygon points="310,870,310,780,490,690,490,780" fill="#fc3a51"></polygon><polygon points="500,310,680,490,500,490,680,310" fill="#fc3a51"></polygon><circle cx="530" cy="400" r="29.999999999999996" fill="#f5b349"></circle><circle cx="650" cy="400" r="29.999999999999996" fill="#e8d5b9"></circle><polygon points="590,500,590,590,590,680,500,590" fill="#fc3a51"></polygon><rect x="620" y="500" width="59.99999999999999" height="59.99999999999999" fill="#f5b349"></rect><rect x="620" y="620" width="59.99999999999999" height="59.99999999999999" fill="#e8d5b9"></rect><polygon points="680,870,680,870,500,870,680,690" fill="#fc3a51"></polygon><polygon points="780,210,870,210,780,300,690,210" fill="#fc3a51"></polygon><polygon points="690,120,780,210,870,120" fill="#f5b349"></polygon><polygon points="690,500,870,590,870,680,690,590" fill="#fc3a51"></polygon></svg>