<?xml version="1.0" encoding="UTF-8" standalone="no"?>
<svg
   version="1.1"
   viewBox="0 0 1000 1000"
   width="1000"
   height="1000"
   id="svg22"
   sodipodi:docname="more_graphics_Ddu2xo.svg"
   inkscape:version="1.2.1 (1:1.2.1+202210291243+9c6d41e410)"
   xmlns:inkscape="http://www.inkscape.org/namespaces/inkscape"
   xmlns:sodipodi="http://sodipodi.sourceforge.net/DTD/sodipodi-0.dtd"
   xmlns="http://www.w3.org/2000/svg"
   xmlns:svg="http://www.w3.org/2000/svg">
  <defs
     id="defs26" />
  <sodipodi:namedview
     id="namedview24"
     pagecolor="#ffffff"
     bordercolor="#000000"
     borderopacity="0.25"
     inkscape:showpageshadow="2"
     inkscape:pageopacity="0.0"
     inkscape:pagecheckerboard="0"
     inkscape:deskcolor="#d1d1d1"
     showgrid="false"
     inkscape:zoom="0.236"
     inkscape:cx="500"
     inkscape:cy="500"
     inkscape:window-width="1920"
     inkscape:window-height="1131"
     inkscape:window-x="0"
     inkscape:window-y="32"
     inkscape:window-maximized="1"
     inkscape:current-layer="svg22" />
  <rect
     x="-1000"
     y="-1000"
     width="1000"
     height="1000"
     fill="#3a9a9d"
     id="rect2"
     transform="scale(-1)" />
  <polygon
     points="340,500 190,650 190,500 "
     fill="#fad9a6"
     id="polygon4"
     transform="rotate(180,500,500)" />
  <polygon
     points="490,500 490,650 340,500 "
     fill="#bd2f28"
     id="polygon6"
     transform="rotate(180,500,500)" />
  <polygon
     points="490,800 340,800 490,650 "
     fill="#89373d"
     id="polygon8"
     transform="rotate(180,500,500)" />
  <polygon
     points="340,800 190,800 190,650 "
     fill="#295264"
     id="polygon10"
     transform="rotate(180,500,500)" />
  <circle
     cx="-660"
     cy="-350"
     r="75"
     fill="#142433"
     id="circle12"
     transform="scale(-1)" />
  <path
     d="M 350,200 A 150,150 0 0 1 200,350 V 200 Z"
     fill="#fad9a6"
     id="path14" />
  <path
     d="M 350,500 A 150,150 0 0 1 500,350 v 150 z"
     fill="#bd2f28"
     id="path16" />
  <path
     d="M 500,350 A 150,150 0 0 1 350,200 h 150 z"
     fill="#89373d"
     id="path18" />
  <path
     d="M 200,350 A 150,150 0 0 1 350,500 H 200 Z"
     fill="#295264"
     id="path20" />
</svg>
