<svg version="1.2" xmlns="http://www.w3.org/2000/svg" viewBox="0 0 500 500" width="500" height="500">
	<title>Ikonka JPG-svg</title>
	<style>
		.s0 { fill: #eeeeee } 
		.s1 { fill: #dedddd } 
		.s2 { fill: #344a5f } 
		.s3 { fill: #ffffff } 
	</style>
	<g id="layer1">
		<g id="g79566">
			<g id="g79591">
				<path id="path55680" class="s0" d="m409.5 160.7v243.7c0 6.3-1.2 12.3-3.5 18.1-2.4 5.8-5.7 10.9-10.1 15.3q-6.5 6.7-15.1 10.3c-5.7 2.4-11.7 3.7-17.8 3.7h-223.9c-6.2 0-12-1.3-17.8-3.7-5.7-2.4-10.7-5.9-15.1-10.3-4.3-4.4-7.6-9.6-10-15.3-2.4-5.8-3.5-11.8-3.5-18.1v-338.4c0-6.3 1.1-12.3 3.5-18.1 2.4-5.8 5.7-10.9 10-15.3 4.4-4.5 9.4-7.9 15.1-10.3 5.8-2.4 11.6-3.7 17.8-3.7h131.2z"/>
				<path id="path55682" class="s1" d="m409.5 160.7h-95.9c-5.8-0.1-11.3-1.3-16.6-3.5-5.3-2.3-10-5.5-14.1-9.6-4-4.2-7.2-8.9-9.3-14.4-2.2-5.3-3.3-10.9-3.3-16.8v-97.8z"/>
				<path id="Kształt 1" class="s2" d="m59 285c0-13.8 11.2-25 25-25h243c13.8 0 25 11.2 25 25v77c0 13.8-11.2 25-25 25h-243c-13.8 0-25-11.2-25-25z"/>
				<path id="GIF" class="s3" d="m165.3 331.7v-10.2h28.4v33.8q-6.1 4.5-13.1 6.5-6.9 2.1-14.5 2.1-9.9 0-18.1-3.1-8-3.1-13.8-8.6-5.8-5.5-8.9-13-3.2-7.5-3.2-16.3 0-9 3-16.4 3-7.6 8.5-13 5.5-5.5 13.3-8.5 7.9-3 17.6-3 5 0 9.4 0.8 4.4 0.8 8.1 2.3 3.7 1.4 6.8 3.4 3.1 2 5.5 4.3l-5.4 8.2q-1.3 1.9-3.3 2.3-2 0.5-4.3-1-2.2-1.3-4.2-2.2-1.9-1-3.9-1.6-2.1-0.6-4.3-0.9-2.3-0.3-5.1-0.3-5.2 0-9.4 1.9-4.2 1.8-7.1 5.2-2.9 3.3-4.5 8.1-1.6 4.6-1.6 10.4 0 6.4 1.7 11.3 1.8 5 5 8.4 3.2 3.4 7.7 5.2 4.5 1.8 9.9 1.8 3.4 0 6.1-0.7 2.7-0.6 5.3-1.7v-12.2h-7.9q-1.8 0-2.8-0.9-0.9-1-0.9-2.4zm59.6-48.8v80.1h-18.7v-80.1zm67.1 14.3h-32.9v20.3h27.4v14.3h-27.4v31.2h-18.7v-80.1h51.6z"/>
			</g>
		</g>
	</g>
</svg>