<svg version="1.2" xmlns="http://www.w3.org/2000/svg" viewBox="0 0 500 500" width="500" height="500">
	<title>Ikonka JPG-svg</title>
	<style>
		.s0 { fill: #eeeeee } 
		.s1 { fill: #dedddd } 
		.s2 { fill: #63cbe5 } 
		.s3 { fill: #ffffff } 
	</style>
	<g id="layer1">
		<g id="g79566">
			<g id="g79591">
				<path id="path55680" class="s0" d="m409.5 160.7v243.7c0 6.3-1.2 12.3-3.5 18.1-2.4 5.8-5.7 10.9-10.1 15.3q-6.5 6.7-15.1 10.3c-5.7 2.4-11.7 3.7-17.8 3.7h-223.9c-6.2 0-12-1.3-17.8-3.7-5.7-2.4-10.7-5.9-15.1-10.3-4.3-4.4-7.6-9.6-10-15.3-2.4-5.8-3.5-11.8-3.5-18.1v-338.4c0-6.3 1.1-12.3 3.5-18.1 2.4-5.8 5.7-10.9 10-15.3 4.4-4.5 9.4-7.9 15.1-10.3 5.8-2.4 11.6-3.7 17.8-3.7h131.2z"/>
				<path id="path55682" class="s1" d="m409.5 160.7h-95.9c-5.8-0.1-11.3-1.3-16.6-3.5-5.3-2.3-10-5.5-14.1-9.6-4-4.2-7.2-8.9-9.3-14.4-2.2-5.3-3.3-10.9-3.3-16.8v-97.8z"/>
				<path id="Kształt 1" class="s2" d="m59 285c0-13.8 11.2-25 25-25h243c13.8 0 25 11.2 25 25v77c0 13.8-11.2 25-25 25h-243c-13.8 0-25-11.2-25-25z"/>
				<path id="MP3" fill-rule="evenodd" class="s3" d="m176.7 282.9h14.1v80.1h-16.3v-46.1q0-1.6 0-3.5 0.1-1.8 0.3-3.7l-21.2 41.1q-1 2-2.7 3-1.7 1-3.8 1h-2.6q-2.1 0-3.8-1-1.7-1-2.7-3l-21.2-41.3q0.1 2 0.2 3.9 0.1 1.9 0.1 3.5v46.1h-16.3v-80.1h14.1q1.3 0 2.1 0 1 0.1 1.7 0.4 0.7 0.2 1.3 0.8 0.6 0.6 1.1 1.6l20.6 40.7q1.1 2.1 2.1 4.3 1.1 2.3 2 4.6 0.9-2.4 1.9-4.7 1.1-2.3 2.2-4.4l20.6-40.5q0.5-1 1.1-1.6 0.6-0.6 1.3-0.8 0.7-0.3 1.6-0.4 0.9 0 2.2 0zm29.7 0h28.2q8.5 0 14.5 2 6.2 2 10.1 5.5 3.9 3.5 5.8 8.3 1.9 4.8 1.9 10.3 0 6-2 11-1.9 5-5.9 8.6-3.9 3.6-10 5.6-6.1 2-14.4 2h-9.7v26.8h-18.5zm18.5 39.3h9.7q7.3 0 10.5-3.4 3.2-3.5 3.2-9.7 0-2.8-0.9-5-0.8-2.3-2.5-3.9-1.6-1.6-4.2-2.5-2.6-0.9-6.1-0.9h-9.7zm57.5-14.8l-9-1.6q0.9-6 3.4-10.5 2.5-4.4 6.2-7.4 3.7-3 8.5-4.4 4.8-1.5 10.3-1.5 5.9 0 10.5 1.7 4.7 1.7 7.8 4.5 3.2 2.9 4.9 6.7 1.6 3.7 1.6 7.9 0 3.8-0.7 6.7-0.8 2.9-2.3 5-1.5 2.1-3.8 3.6-2.2 1.4-5 2.4 13.3 4.7 13.3 18.2 0 6.3-2.3 11.1-2.4 4.7-6.3 7.8-3.8 3.2-8.9 4.8-5.1 1.5-10.7 1.5-5.7 0-10.2-1.2-4.4-1.3-7.9-3.9-3.4-2.6-6.1-6.7-2.6-4-4.5-9.6l7.6-3.1q3-1.2 5.5-0.6 2.5 0.5 3.6 2.5 2.5 4.6 5.2 6.7 2.8 2 6.6 2 2.9 0 4.9-0.9 2.2-1 3.6-2.5 1.4-1.6 2.1-3.5 0.7-1.9 0.7-3.9 0-2.6-0.4-4.6-0.3-2.1-1.9-3.6-1.7-1.5-5.1-2.2-3.2-0.9-9.2-0.9v-11.7q5 0 8.1-0.8 3.1-0.8 4.7-2.1 1.7-1.4 2.3-3.3 0.5-1.9 0.5-4.2 0-4.8-2.3-7.3-2.2-2.6-6.9-2.6-3.8 0-6.4 2.1-2.6 1.9-3.6 4.9-1.2 3-3 4-1.9 1-5.4 0.5z"/>
			</g>
		</g>
	</g>
</svg>