<svg version="1.2" xmlns="http://www.w3.org/2000/svg" viewBox="0 0 500 500" width="500" height="500">
	<title>Ikonka JPG-svg</title>
	<style>
		.s0 { fill: #eeeeee } 
		.s1 { fill: #dedddd } 
		.s2 { fill: #ea686d } 
		.s3 { fill: #ffffff } 
	</style>
	<g id="layer1">
		<g id="g79566">
			<g id="g79591">
				<path id="path55680" class="s0" d="m409.5 160.7v243.7c0 6.3-1.2 12.3-3.5 18.1-2.4 5.8-5.7 10.9-10.1 15.3q-6.5 6.7-15.1 10.3c-5.7 2.4-11.7 3.7-17.8 3.7h-223.9c-6.2 0-12-1.3-17.8-3.7-5.7-2.4-10.7-5.9-15.1-10.3-4.3-4.4-7.6-9.6-10-15.3-2.4-5.8-3.5-11.8-3.5-18.1v-338.4c0-6.3 1.1-12.3 3.5-18.1 2.4-5.8 5.7-10.9 10-15.3 4.4-4.5 9.4-7.9 15.1-10.3 5.8-2.4 11.6-3.7 17.8-3.7h131.2z"/>
				<path id="path55682" class="s1" d="m409.5 160.7h-95.9c-5.8-0.1-11.3-1.3-16.6-3.5-5.3-2.3-10-5.5-14.1-9.6-4-4.2-7.2-8.9-9.3-14.4-2.2-5.3-3.3-10.9-3.3-16.8v-97.8z"/>
				<path id="Kształt 1" class="s2" d="m59 285c0-13.8 11.2-25 25-25h243c13.8 0 25 11.2 25 25v77c0 13.8-11.2 25-25 25h-243c-13.8 0-25-11.2-25-25z"/>
				<path id="PDF" fill-rule="evenodd" class="s3" d="m104.8 282.9h28.2q8.5 0 14.5 2 6.2 2 10.1 5.5 3.9 3.5 5.8 8.3 1.9 4.8 1.9 10.3 0 6-2 11-1.9 5-5.9 8.6-3.9 3.6-10 5.6-6.1 2-14.4 2h-9.7v26.8h-18.5zm18.5 39.3h9.7q7.3 0 10.5-3.4 3.2-3.5 3.2-9.7 0-2.8-0.9-5-0.8-2.3-2.5-3.9-1.6-1.6-4.2-2.5-2.6-0.9-6.1-0.9h-9.7zm124.1 0.7q0 8.7-3 16.1-3 7.3-8.4 12.7-5.5 5.3-13.2 8.4-7.6 2.9-17 2.9h-31.1v-80.1h31.1q9.4 0 17 3 7.7 3 13.2 8.4 5.4 5.3 8.4 12.7 3 7.3 3 15.9zm-19 0q0-5.9-1.5-10.7-1.6-4.8-4.5-8.1-2.9-3.3-7-5.1-4.2-1.8-9.6-1.8h-12.4v51.5h12.4q5.4 0 9.6-1.7 4.1-1.9 7-5.2 2.9-3.3 4.5-8.1 1.5-4.8 1.5-10.8zm81.6-25.7h-32.9v20.3h27.4v14.3h-27.4v31.2h-18.7v-80.1h51.6z"/>
			</g>
		</g>
	</g>
</svg>