<svg version="1.2" xmlns="http://www.w3.org/2000/svg" viewBox="0 0 500 500" width="500" height="500">
	<title>Ikonka JPG-svg</title>
	<style>
		.s0 { fill: #eeeeee } 
		.s1 { fill: #dedddd } 
		.s2 { fill: #7d8ee2 } 
		.s3 { fill: #ffffff } 
	</style>
	<g id="layer1">
		<g id="g79566">
			<g id="g79591">
				<path id="path55680" class="s0" d="m409.5 160.7v243.7c0 6.3-1.2 12.3-3.5 18.1-2.4 5.8-5.7 10.9-10.1 15.3q-6.5 6.7-15.1 10.3c-5.7 2.4-11.7 3.7-17.8 3.7h-223.9c-6.2 0-12-1.3-17.8-3.7-5.7-2.4-10.7-5.9-15.1-10.3-4.3-4.4-7.6-9.6-10-15.3-2.4-5.8-3.5-11.8-3.5-18.1v-338.4c0-6.3 1.1-12.3 3.5-18.1 2.4-5.8 5.7-10.9 10-15.3 4.4-4.5 9.4-7.9 15.1-10.3 5.8-2.4 11.6-3.7 17.8-3.7h131.2z"/>
				<path id="path55682" class="s1" d="m409.5 160.7h-95.9c-5.8-0.1-11.3-1.3-16.6-3.5-5.3-2.3-10-5.5-14.1-9.6-4-4.2-7.2-8.9-9.3-14.4-2.2-5.3-3.3-10.9-3.3-16.8v-97.8z"/>
				<path id="Kształt 1" class="s2" d="m59 285c0-13.8 11.2-25 25-25h243c13.8 0 25 11.2 25 25v77c0 13.8-11.2 25-25 25h-243c-13.8 0-25-11.2-25-25z"/>
				<path id="RAR" fill-rule="evenodd" class="s3" d="m148.3 335.1l15.5 25.5 30.1-77.7h19l31.1 80.1h-14.4q-2.5 0-4-1.1-1.4-1.2-2.2-2.9l-4.7-14h-30.5l-4.7 14q-0.6 1.5-2.2 2.8-1.6 1.2-3.9 1.2h-28.9q-4.7 0-6.7-3.5l-13.3-23.3q-1-1.5-2.1-2.1-1.2-0.7-3.3-0.7h-4.8v29.6h-18.5v-80.1h26q8.7 0 14.8 1.8 6.2 1.7 10 4.9 3.9 3.2 5.7 7.6 1.8 4.3 1.8 9.4 0 3.9-1.1 7.4-1 3.5-3.1 6.4-2 2.9-5 5.3-3 2.3-6.9 3.7 1.8 1 3.4 2.4 1.6 1.4 2.9 3.3zm-30-14.6h7.5q3.8 0 6.5-0.9 2.7-1 4.4-2.7 1.7-1.7 2.4-4 0.8-2.3 0.8-4.9 0-5.3-3.5-8.3-3.4-2.9-10.6-2.9h-7.5zm74.2 11.8h21.9l-7.4-21.9q-0.8-2.1-1.8-4.9-0.9-2.9-1.8-6.2-0.9 3.4-1.8 6.2-0.9 2.9-1.7 5zm106.3 2.7l17 27.9h-16.8q-4.7 0-6.7-3.5l-13.3-23.3q-1-1.5-2.1-2.1-1.2-0.7-3.3-0.7h-4.8v29.6h-18.5v-80.1h26q8.7 0 14.8 1.8 6.2 1.7 10 4.9 3.9 3.2 5.7 7.6 1.8 4.3 1.8 9.4 0 3.9-1.1 7.4-1 3.5-3.1 6.4-2 2.9-5 5.3-3 2.3-6.9 3.8 1.8 0.9 3.4 2.3 1.6 1.4 2.9 3.3zm-30-14.6h7.5q3.8 0 6.5-0.9 2.7-1 4.4-2.7 1.7-1.7 2.4-3.9 0.8-2.4 0.8-5 0-5.3-3.5-8.2-3.4-3-10.6-3h-7.5z"/>
			</g>
		</g>
	</g>
</svg>