<svg version="1.2" xmlns="http://www.w3.org/2000/svg" viewBox="0 0 500 500" width="500" height="500">
	<title>Ikonka JPG-svg</title>
	<style>
		.s0 { fill: #eeeeee } 
		.s1 { fill: #dedddd } 
		.s2 { fill: #344a5f } 
		.s3 { fill: #ffffff } 
	</style>
	<g id="layer1">
		<g id="g79566">
			<g id="g79591">
				<path id="path55680" class="s0" d="m409.5 160.7v243.7c0 6.3-1.2 12.3-3.5 18.1-2.4 5.8-5.7 10.9-10.1 15.3q-6.5 6.7-15.1 10.3c-5.7 2.4-11.7 3.7-17.8 3.7h-223.9c-6.2 0-12-1.3-17.8-3.7-5.7-2.4-10.7-5.9-15.1-10.3-4.3-4.4-7.6-9.6-10-15.3-2.4-5.8-3.5-11.8-3.5-18.1v-338.4c0-6.3 1.1-12.3 3.5-18.1 2.4-5.8 5.7-10.9 10-15.3 4.4-4.5 9.4-7.9 15.1-10.3 5.8-2.4 11.6-3.7 17.8-3.7h131.2z"/>
				<path id="path55682" class="s1" d="m409.5 160.7h-95.9c-5.8-0.1-11.3-1.3-16.6-3.5-5.3-2.3-10-5.5-14.1-9.6-4-4.2-7.2-8.9-9.3-14.4-2.2-5.3-3.3-10.9-3.3-16.8v-97.8z"/>
				<path id="Kształt 1" class="s2" d="m59 285c0-13.8 11.2-25 25-25h243c13.8 0 25 11.2 25 25v77c0 13.8-11.2 25-25 25h-243c-13.8 0-25-11.2-25-25z"/>
				<path id="SVG" class="s3" d="m158.7 290.5l-4.7 8.6q-0.8 1.4-1.7 2-0.9 0.7-2.3 0.7-1.3 0-2.8-0.8-1.4-0.8-3.3-1.8-1.8-1-4.2-1.8-2.3-0.8-5.4-0.8-5.2 0-7.8 2.3-2.5 2.2-2.5 6 0 2.4 1.5 4 1.6 1.6 4.1 2.7 2.5 1.2 5.7 2.2 3.2 0.9 6.6 2.1 3.3 1.2 6.5 2.8 3.3 1.6 5.7 4 2.6 2.5 4.1 6.1 1.6 3.5 1.6 8.5 0 5.6-2 10.4-1.9 4.8-5.6 8.5-3.6 3.6-9 5.6-5.3 2.1-12.2 2.1-3.7 0-7.6-0.8-3.9-0.8-7.5-2.1-3.6-1.5-6.8-3.4-3.2-1.9-5.6-4.3l5.5-8.7q0.7-0.9 1.7-1.5 1.1-0.7 2.4-0.7 1.7 0 3.3 1.1 1.7 1 3.8 2.3 2.2 1.3 4.9 2.3 2.7 1 6.5 1 5 0 7.9-2.2 2.8-2.2 2.8-7.1 0-2.8-1.6-4.5-1.5-1.8-4-2.9-2.5-1.2-5.7-2.1-3.2-0.9-6.6-1.9-3.3-1.1-6.5-2.6-3.2-1.6-5.7-4.2-2.5-2.5-4-6.3-1.6-3.9-1.6-9.5 0-4.5 1.8-8.8 1.9-4.3 5.4-7.6 3.5-3.4 8.6-5.4 5.1-2 11.7-2 3.7 0 7.2 0.6 3.5 0.5 6.6 1.7 3.2 1.1 5.9 2.7 2.7 1.5 4.9 3.5zm67-7.6h15.1l-32.2 80.1h-16.8l-32.1-80.1h15q2.4 0 3.9 1.1 1.4 1.1 2.2 2.9l15.5 42.9q1.1 2.8 2.2 6.1 1 3.3 2 7 0.7-3.7 1.7-7 0.9-3.3 2-6.1l15.4-42.9q0.7-1.6 2.2-2.8 1.6-1.2 3.9-1.2zm57 48.8v-10.2h28.5v33.8q-6.2 4.5-13.2 6.5-6.9 2.1-14.5 2.1-9.9 0-18-3.1-8.1-3.1-13.9-8.6-5.8-5.5-8.9-13-3.1-7.5-3.1-16.3 0-9 2.9-16.4 3-7.6 8.5-13 5.6-5.5 13.4-8.5 7.8-3 17.5-3 5 0 9.4 0.8 4.4 0.8 8.1 2.3 3.7 1.4 6.8 3.4 3.1 2 5.5 4.3l-5.4 8.2q-1.2 1.9-3.3 2.3-2 0.5-4.3-1-2.2-1.3-4.1-2.2-2-1-4-1.6-2-0.6-4.3-0.9-2.3-0.3-5.1-0.3-5.2 0-9.4 1.9-4.1 1.8-7.1 5.2-2.9 3.3-4.5 8.1-1.6 4.6-1.6 10.4 0 6.4 1.7 11.3 1.8 5 5 8.4 3.2 3.4 7.7 5.2 4.5 1.8 10 1.8 3.3 0 6-0.7 2.8-0.6 5.3-1.7v-12.2h-7.9q-1.7 0-2.7-0.9-1-1-1-2.4z"/>
			</g>
		</g>
	</g>
</svg>