<svg version="1.2" xmlns="http://www.w3.org/2000/svg" viewBox="0 0 500 500" width="500" height="500">
	<title>Ikonka JPG-svg</title>
	<style>
		.s0 { fill: #eeeeee } 
		.s1 { fill: #dedddd } 
		.s2 { fill: #63cbe5 } 
		.s3 { fill: #ffffff } 
	</style>
	<g id="layer1">
		<g id="g79566">
			<g id="g79591">
				<path id="path55680" class="s0" d="m409.5 160.7v243.7c0 6.3-1.2 12.3-3.5 18.1-2.4 5.8-5.7 10.9-10.1 15.3q-6.5 6.7-15.1 10.3c-5.7 2.4-11.7 3.7-17.8 3.7h-223.9c-6.2 0-12-1.3-17.8-3.7-5.7-2.4-10.7-5.9-15.1-10.3-4.3-4.4-7.6-9.6-10-15.3-2.4-5.8-3.5-11.8-3.5-18.1v-338.4c0-6.3 1.1-12.3 3.5-18.1 2.4-5.8 5.7-10.9 10-15.3 4.4-4.5 9.4-7.9 15.1-10.3 5.8-2.4 11.6-3.7 17.8-3.7h131.2z"/>
				<path id="path55682" class="s1" d="m409.5 160.7h-95.9c-5.8-0.1-11.3-1.3-16.6-3.5-5.3-2.3-10-5.5-14.1-9.6-4-4.2-7.2-8.9-9.3-14.4-2.2-5.3-3.3-10.9-3.3-16.8v-97.8z"/>
				<path id="Kształt 1" class="s2" d="m59 285c0-13.8 11.2-25 25-25h243c13.8 0 25 11.2 25 25v77c0 13.8-11.2 25-25 25h-243c-13.8 0-25-11.2-25-25z"/>
				<path id="WAV" fill-rule="evenodd" class="s3" d="m178.3 282.9h14.6l-24.7 80.1h-16.9l-15-49.7q-0.5-1.1-0.8-2.5-0.4-1.4-0.8-3-0.4 1.6-0.8 3-0.4 1.4-0.8 2.5l-15.3 49.7h-16.8l-24.8-80.1h15.6q2.5 0 4.1 1.1 1.6 1.1 2.1 2.9l11 41.8q0.5 2 1 4.3 0.5 2.3 1 4.9 1-5.2 2.4-9.2l13-41.8q0.5-1.6 2.1-2.8 1.6-1.2 3.9-1.2h5.5q2.4 0 3.9 1.1 1.5 1.1 2.3 2.9l12.9 41.8q1.4 3.8 2.4 8.7 0.4-2.4 0.9-4.6 0.5-2.2 0.9-4.1l11-41.8q0.5-1.6 2.1-2.8 1.7-1.2 4-1.2zm57.8 0l31 80.1h-14.4q-2.5 0-3.9-1.1-1.5-1.2-2.3-2.9l-4.7-14h-30.5l-4.7 14q-0.6 1.5-2.2 2.8-1.6 1.2-3.9 1.2h-14.5l31-80.1zm-20.4 49.5h21.9l-7.4-22q-0.8-2.1-1.8-4.9-0.9-2.8-1.8-6.1-0.9 3.3-1.8 6.2-0.9 2.8-1.8 4.9zm107.9-49.5h15.1l-32.1 80.2h-16.8l-32.2-80.2h15q2.4 0 3.9 1.2 1.5 1.1 2.3 2.8l15.5 42.9q1.1 2.8 2.1 6.2 1.1 3.3 2 6.9 0.8-3.6 1.7-6.9 1-3.4 2.1-6.2l15.4-42.9q0.6-1.5 2.1-2.7 1.6-1.3 3.9-1.3z"/>
			</g>
		</g>
	</g>
</svg>