<svg version="1.2" xmlns="http://www.w3.org/2000/svg" viewBox="0 0 500 500" width="500" height="500">
	<title>Ikonka JPG-svg</title>
	<style>
		.s0 { fill: #eeeeee } 
		.s1 { fill: #dedddd } 
		.s2 { fill: #7d8ee2 } 
		.s3 { fill: #ffffff } 
	</style>
	<g id="layer1">
		<g id="g79566">
			<g id="g79591">
				<path id="path55680" class="s0" d="m409.5 160.7v243.7c0 6.3-1.2 12.3-3.5 18.1-2.4 5.8-5.7 10.9-10.1 15.3q-6.5 6.7-15.1 10.3c-5.7 2.4-11.7 3.7-17.8 3.7h-223.9c-6.2 0-12-1.3-17.8-3.7-5.7-2.4-10.7-5.9-15.1-10.3-4.3-4.4-7.6-9.6-10-15.3-2.4-5.8-3.5-11.8-3.5-18.1v-338.4c0-6.3 1.1-12.3 3.5-18.1 2.4-5.8 5.7-10.9 10-15.3 4.4-4.5 9.4-7.9 15.1-10.3 5.8-2.4 11.6-3.7 17.8-3.7h131.2z"/>
				<path id="path55682" class="s1" d="m409.5 160.7h-95.9c-5.8-0.1-11.3-1.3-16.6-3.5-5.3-2.3-10-5.5-14.1-9.6-4-4.2-7.2-8.9-9.3-14.4-2.2-5.3-3.3-10.9-3.3-16.8v-97.8z"/>
				<path id="Kształt 1" class="s2" d="m59 285c0-13.8 11.2-25 25-25h243c13.8 0 25 11.2 25 25v77c0 13.8-11.2 25-25 25h-243c-13.8 0-25-11.2-25-25z"/>
				<path id="ZIP" fill-rule="evenodd" class="s3" d="m186.6 282.9v6.7q0 1.4-0.5 2.8-0.5 1.4-1.3 2.6l-37.6 53.7h38.2v14.3h-61.9v-7.1q0-1.3 0.5-2.5 0.4-1.3 1.2-2.3l37.7-53.9h-36.3v-14.3zm28.9 0v80.1h-18.7v-80.1zm15.5 0h28.3q8.4 0 14.5 2 6.1 2 10 5.5 4 3.5 5.8 8.3 1.9 4.8 1.9 10.3 0 6-1.9 11-1.9 5-5.9 8.6-4 3.6-10.1 5.6-6 2-14.3 2h-9.7v26.8h-18.6zm18.6 39.3h9.7q7.2 0 10.4-3.4 3.2-3.5 3.2-9.7 0-2.8-0.8-5-0.8-2.3-2.5-3.9-1.7-1.6-4.3-2.5-2.5-0.9-6-0.9h-9.7z"/>
			</g>
		</g>
	</g>
</svg>