<?xml version="1.0" encoding="UTF-8" standalone="no"?>
<!-- Created with Inkscape (http://www.inkscape.org/) -->

<svg
   version="1.1"
   id="svg2"
   width="666.66669"
   height="666.66669"
   viewBox="0 0 666.66669 666.66669"
   sodipodi:docname="pdf-o.svg"
   inkscape:version="1.2.2 (b0a8486541, 2022-12-01)"
   xmlns:inkscape="http://www.inkscape.org/namespaces/inkscape"
   xmlns:sodipodi="http://sodipodi.sourceforge.net/DTD/sodipodi-0.dtd"
   xmlns="http://www.w3.org/2000/svg"
   xmlns:svg="http://www.w3.org/2000/svg">
  <defs
     id="defs6">
    <clipPath
       clipPathUnits="userSpaceOnUse"
       id="clipPath20">
      <path
         d="M 0,500 H 500 V 0 H 0 Z"
         id="path18" />
    </clipPath>
  </defs>
  <sodipodi:namedview
     id="namedview4"
     pagecolor="#ffffff"
     bordercolor="#666666"
     borderopacity="1.0"
     inkscape:showpageshadow="2"
     inkscape:pageopacity="0.0"
     inkscape:pagecheckerboard="0"
     inkscape:deskcolor="#d1d1d1"
     showgrid="false"
     inkscape:zoom="0.35399999"
     inkscape:cx="333.33334"
     inkscape:cy="333.33334"
     inkscape:window-width="1920"
     inkscape:window-height="1131"
     inkscape:window-x="0"
     inkscape:window-y="32"
     inkscape:window-maximized="1"
     inkscape:current-layer="g10">
    <inkscape:page
       x="0"
       y="0"
       id="page8"
       width="666.66669"
       height="666.66669" />
  </sodipodi:namedview>
  <g
     id="g10"
     inkscape:groupmode="layer"
     inkscape:label="Page 1"
     transform="matrix(1.3333333,0,0,-1.3333333,0,666.66667)">
    <path
       d="M 0,0 H 500 V 500 H 0 Z M 48.334,450 H 451.667 V 50 H 48.334 Z"
       style="fill:#ea4c3a;fill-opacity:1;fill-rule:nonzero;stroke:none"
       id="path12" />
    <g
       id="g14">
      <g
         id="g16"
         clip-path="url(#clipPath20)">
        <g
           id="g22"
           transform="translate(245.0002,414.9999)">
          <path
             d="M 0,0 V 0 L -3.334,-1.667 C -5,-1.667 -5,-3.334 -6.667,-3.334 c 0,-1.666 -1.667,-4.999 -3.334,-13.333 -1.666,-8.333 -1.666,-18.333 0,-26.666 0,-6.667 1.667,-15 3.334,-23.334 3.333,18.334 6.666,33.334 6.666,45.001 v 8.333 c 0,5 1.667,8.333 1.667,11.667 C 1.666,-1.667 1.666,0 0,0 m -1.667,-145 c -10,-25 -21.666,-48.333 -31.666,-68.333 21.666,6.666 40,10 54.999,13.333 5,1.667 10.001,1.667 13.334,3.334 -3.334,4.999 -6.667,10 -10.001,13.333 C 13.333,-170 5,-156.667 -1.667,-145 m 90,-73.333 C 100,-231.667 110,-240 121.666,-248.333 133.333,-256.667 141.667,-260 145,-261.666 c 4.999,-1.667 8.333,-1.667 13.333,0 3.333,1.666 5,3.333 6.666,4.999 1.667,1.667 1.667,6.667 0,11.667 -1.666,5 -6.666,10 -11.666,13.333 -5,3.334 -11.667,6.667 -21.667,8.334 -10,1.667 -21.666,5 -31.667,5 -4.999,-1.667 -8.332,0 -11.666,0 m -188.333,-50 c -18.333,-10.001 -28.334,-20.001 -33.333,-25 -6.667,-8.334 -10,-13.334 -10,-16.667 4.999,1.667 10,5 16.666,11.667 6.667,6.666 15,15 26.667,30 M -150,-310 v -13.333 z m 0,-26.666 c -8.333,0 -15,3.333 -18.333,10 -3.334,6.666 -3.334,15 -1.667,23.333 1.667,10 8.333,20 16.666,28.334 11.667,11.666 28.334,23.333 48.334,33.333 10,5 20,10 33.333,15 20,33.333 36.667,68.333 48.333,100 1.667,5 3.334,8.333 5,13.333 -5,11.667 -6.667,21.666 -10,28.333 -3.334,15 -6.667,28.334 -8.333,40 -1.667,11.667 0,21.667 0,33.334 1.666,10 3.333,18.333 6.666,23.333 3.334,5 8.334,10 15,11.667 3.334,1.667 6.667,1.667 8.333,1.667 5,1.666 8.334,0 11.667,0 3.334,-1.667 6.667,-3.334 10,-5 15,-6.667 13.334,-18.334 11.667,-36.667 v -8.333 C 24.999,-45 18.333,-78.333 8.333,-113.333 c 0,-1.666 1.667,-3.333 1.667,-4.999 8.333,-15 18.333,-33.334 33.333,-51.667 6.666,-8.334 13.333,-16.667 20,-25 11.667,1.667 23.333,0 35,0 11.667,-1.667 23.333,-3.334 35,-6.667 13.333,-3.333 21.667,-6.666 30,-11.667 10,-6.666 18.334,-15 21.667,-25 4.999,-10 4.999,-21.666 0,-31.666 -3.334,-8.334 -11.667,-15 -21.667,-18.334 -10,-3.333 -18.333,-3.333 -28.333,0 -8.334,3.334 -20.001,8.334 -31.667,18.334 -11.667,8.333 -23.333,18.333 -36.667,31.666 -5,5 -10,10 -15,16.667 -8.333,-1.667 -16.666,-1.667 -28.333,-5 -15,-3.333 -30,-6.666 -51.667,-13.333 -8.333,-3.333 -18.333,-6.666 -28.334,-10 -1.666,-1.667 -1.666,-3.334 -3.333,-5 -18.334,-28.333 -36.667,-50 -51.667,-65 -11.667,-10 -23.333,-16.666 -33.333,-18.333 -1.666,1.666 -3.333,1.666 -4.999,1.666"
             style="fill:#ea4c3a;fill-opacity:1;fill-rule:nonzero;stroke:none"
             id="path24" />
        </g>
      </g>
    </g>
  </g>
</svg>
